<svg viewBox="0 0 32 32" xmlns="http://www.w3.org/2000/svg">
	<path d="M21.011 21.01a.502.502 0 000 .708l2.414 2.414a.5.5 0 00.707-.707l-2.414-2.415a.499.499 0 00-.707 0z"
		fill="#455A64" />
	<path
		d="M29.914 27.086l-3.5-3.5c-.756-.756-2.072-.756-2.828 0-.378.378-.586.88-.586 1.414s.208 1.036.586 1.414l3.5 3.5c.378.378.88.586 1.414.586s1.036-.208 1.414-.586.586-.88.586-1.414-.208-1.036-.586-1.414z"
		fill="#FF8A80" />
	<path
		d="M30.414 28.414c-.378.378-.88.586-1.414.586s-1.036-.208-1.414-.586l-4-4a1.959 1.959 0 01-.309-.414A1.99 1.99 0 0023 25c0 .534.208 1.036.586 1.414l3.5 3.5c.378.378.88.586 1.414.586s1.036-.208 1.414-.586.586-.88.586-1.414c0-.058-.012-.113-.017-.17-.024.027-.043.058-.069.084z"
		fill="#E67C73" />
	<path
		d="M28.5 31c-.667 0-1.295-.26-1.768-.732l-3.5-3.5c-.472-.473-.732-1.1-.732-1.768s.26-1.295.732-1.768c.906-.906 2.629-.906 3.535 0l3.5 3.5c.473.473.733 1.1.733 1.768s-.26 1.295-.732 1.768S29.167 31 28.5 31zM25 23.52a1.5 1.5 0 00-1.061.42c-.283.283-.439.66-.439 1.06s.156.777.439 1.061l3.5 3.5c.567.566 1.554.566 2.121 0 .284-.284.44-.661.44-1.061s-.156-.777-.439-1.061l-3.5-3.5A1.504 1.504 0 0025 23.52z"
		fill="#455A64" />
	<path d="M28.254 26.547l-2.5-2.5a.5.5 0 00-.707.707l2.5 2.5a.504.504 0 00.708 0 .501.501 0 00-.001-.707z"
		fill="#FFAFA9" />
	<circle cx="13" cy="13" fill="#ECEFF1" r="11.5" />
	<g>
		<path d="M21.611 15.615A8.999 8.999 0 0113 21.95l8.611-6.335z" fill="#ECEFF1" />
		<path
			d="M13 22.45a.5.5 0 010-1c3.767 0 7.035-2.404 8.133-5.981a.5.5 0 01.957.293c-1.229 4.001-4.881 6.688-9.09 6.688z"
			fill="#455A64" />
	</g>
	<path
		d="M4 15C4 8.923 8.924 4 15 4c3.255 0 6.171 1.422 8.185 3.668C21.263 4.003 17.427 1.5 13 1.5 6.647 1.5 1.5 6.646 1.5 13c0 4.428 2.503 8.263 6.168 10.185A10.958 10.958 0 014 15z"
		fill="#FFF" />
	<path
		d="M13 25C6.383 25 1 19.617 1 13S6.383 1 13 1s12 5.383 12 12-5.383 12-12 12zm0-23C6.935 2 2 6.935 2 13s4.935 11 11 11 11-4.935 11-11S19.065 2 13 2z"
		fill="#455A64" />
	<circle cx="22" cy="13" fill="#455A64" r=".5" />
</svg>